<svg width="34" height="204" viewBox="0 0 34 204" fill="none" xmlns="http://www.w3.org/2000/svg">
<path d="M23.9397 12.4254L7.82569 2.5H25.3094H31.5V201.5H25.3094H12.2735H7.61904L24.1237 190.692C26.8368 188.916 26.8368 184.94 24.1237 183.163L3.8012 169.856L24.1237 156.548C26.8368 154.771 26.8368 150.795 24.1237 149.019L3.80119 135.711L24.1237 122.403C26.8368 120.627 26.8368 116.651 24.1237 114.874L3.80119 101.567L24.1237 88.259C26.8368 86.4824 26.8368 82.5062 24.1237 80.7296L3.80119 67.422L24.1237 54.1145C26.8368 52.3379 26.8368 48.3617 24.1237 46.5851L3.80119 33.2775L24.0449 20.0216C26.803 18.2155 26.7468 14.1545 23.9397 12.4254Z" fill="white" stroke="white" stroke-width="5" stroke-linejoin="round"/>
</svg>
