<svg width="14" height="10" viewBox="0 0 14 10" fill="none" xmlns="http://www.w3.org/2000/svg">
<path d="M1.51968 9.87488H12.6517C12.7644 9.87452 12.8749 9.84311 12.9712 9.78402C13.0676 9.72493 13.1461 9.6404 13.1985 9.53954C13.2509 9.43867 13.275 9.32528 13.2683 9.21158C13.2617 9.09788 13.2244 8.98817 13.1607 8.89426L7.59465 0.769258C7.36397 0.432383 6.80861 0.432383 6.57731 0.769258L1.01132 8.89426C0.94689 8.98797 0.909109 9.09774 0.902078 9.21163C0.895047 9.32552 0.919035 9.43918 0.971436 9.54026C1.02384 9.64134 1.10265 9.72598 1.1993 9.78497C1.29596 9.84397 1.40676 9.87506 1.51968 9.87488Z" fill="#1762A3"/>
</svg>
