<svg width="33" height="20" viewBox="0 0 33 20" fill="none" xmlns="http://www.w3.org/2000/svg">
<path d="M0.78125 4.38707V0.818181H16.1488V4.38707H10.6357V19H6.30327V4.38707H0.78125Z" fill="#EDEFFD"/>
<path d="M28.1228 6.26918C28.0636 5.61813 27.8002 5.1121 27.3327 4.75107C26.871 4.38411 26.2111 4.20064 25.3529 4.20064C24.7847 4.20064 24.3112 4.27462 23.9324 4.42258C23.5537 4.57055 23.2696 4.77474 23.0802 5.03516C22.8908 5.28965 22.7931 5.58262 22.7872 5.91406C22.7754 6.18632 22.8286 6.42602 22.947 6.63317C23.0713 6.84032 23.2488 7.02379 23.4797 7.18359C23.7164 7.33748 24.0005 7.4736 24.3319 7.59197C24.6634 7.71035 25.0363 7.81392 25.4506 7.9027L27.0131 8.25781C27.9127 8.45312 28.7058 8.71354 29.3923 9.03906C30.0848 9.36458 30.6648 9.75225 31.1324 10.2021C31.6059 10.6519 31.9639 11.1697 32.2066 11.7557C32.4492 12.3416 32.5735 12.9986 32.5795 13.7266C32.5735 14.8748 32.2835 15.8602 31.7094 16.6829C31.1353 17.5056 30.3097 18.1359 29.2325 18.5739C28.1613 19.0118 26.868 19.2308 25.3529 19.2308C23.8318 19.2308 22.5061 19.003 21.3756 18.5472C20.2452 18.0915 19.3663 17.399 18.7389 16.4698C18.1115 15.5406 17.789 14.3658 17.7712 12.9453H21.9793C22.0148 13.5312 22.1717 14.0195 22.4498 14.4102C22.728 14.8008 23.1098 15.0967 23.5951 15.2979C24.0863 15.4992 24.6545 15.5998 25.2996 15.5998C25.8915 15.5998 26.3946 15.5199 26.8089 15.3601C27.2291 15.2003 27.5516 14.9783 27.7765 14.6942C28.0015 14.4102 28.1169 14.0846 28.1228 13.7177C28.1169 13.3744 28.0103 13.0814 27.8032 12.8388C27.596 12.5902 27.2764 12.3771 26.8444 12.1996C26.4182 12.0161 25.8737 11.8474 25.2108 11.6935L23.311 11.2496C21.7367 10.8886 20.4967 10.3056 19.5912 9.50071C18.6856 8.68987 18.2358 7.59493 18.2417 6.21591C18.2358 5.09138 18.5377 4.10594 19.1473 3.25959C19.7569 2.41323 20.6003 1.75331 21.6775 1.27983C22.7546 0.806344 23.9827 0.569602 25.3618 0.569602C26.7704 0.569602 27.9926 0.809303 29.0283 1.28871C30.07 1.76219 30.8779 2.42803 31.452 3.28622C32.0261 4.14441 32.319 5.13873 32.3309 6.26918H28.1228Z" fill="#6C9BCF"/>
</svg>
